<svg version="1.1" id="Layer_1" xmlns="http://www.w3.org/2000/svg" xmlns:xlink="http://www.w3.org/1999/xlink" x="0px" y="0px"
	 width="100%" viewBox="0 0 1024 544" enable-background="new 0 0 1024 544" xml:space="preserve">
<path fill="#000000" opacity="1.000000" stroke="none" 
	d="
M414.268158,224.433289 
	C410.702362,205.009171 413.512024,186.216049 416.060455,167.410812 
	C416.975555,160.658112 417.867371,153.901169 418.651672,147.132477 
	C418.902100,144.971329 419.277466,142.900040 420.238159,140.580856 
	C422.659698,142.241791 422.576050,144.765472 423.149414,146.830399 
	C426.364532,158.408829 430.251373,169.715363 435.798523,180.415253 
	C438.045624,184.749695 440.916199,188.609055 444.271454,192.110184 
	C446.912567,194.866074 450.006683,196.603180 455.001251,195.583206 
	C447.979706,191.101761 442.310760,186.306564 441.131653,178.147858 
	C441.832520,177.929550 442.220001,177.662552 442.432312,177.763641 
	C454.460449,183.490021 465.072906,179.217377 475.487488,173.196152 
	C482.687164,169.033676 489.743225,164.525650 498.578064,164.572708 
	C503.371582,164.598251 507.892883,165.278519 511.820312,168.177094 
	C513.642700,169.522079 515.220093,169.767166 517.246277,168.452087 
	C526.115967,162.695221 535.310791,163.561966 544.407532,167.730682 
	C548.784363,169.736465 552.856873,172.400253 557.100098,174.705353 
	C566.320618,179.714340 575.786377,182.751984 586.171875,178.185104 
	C586.705750,177.950333 587.406982,178.095932 588.750671,178.028061 
	C586.987305,186.168381 582.093445,191.128677 575.239075,194.706100 
	C579.171936,196.303818 580.791138,196.062836 584.091431,193.134903 
	C589.425842,188.402405 593.064026,182.447678 596.001343,176.034866 
	C600.451050,166.320038 603.763428,156.196625 606.712585,145.945312 
	C607.189270,144.288406 607.699768,142.641235 608.552856,139.794067 
	C611.472107,145.792160 611.294556,151.014008 611.971130,155.956955 
	C613.887085,169.955322 615.676636,183.987106 616.901306,198.059204 
	C617.978149,210.432053 616.410034,222.657425 612.548889,234.522812 
	C612.190247,235.624802 611.764832,236.718170 611.235840,237.746262 
	C610.956177,238.289871 610.386108,238.684036 609.852661,239.245056 
	C607.216248,237.503540 608.352844,234.101486 606.069824,231.963348 
	C602.570496,253.415482 594.621033,272.126770 576.636780,285.254211 
	C574.358765,283.384033 575.747498,281.689240 575.651428,280.156464 
	C575.558838,278.679169 575.631409,277.191498 575.241760,275.439606 
	C567.271179,291.008331 556.275269,303.211639 539.791687,309.887756 
	C537.597412,306.378479 540.836243,303.410858 538.801025,299.897583 
	C532.716125,307.305206 525.710510,313.573029 519.237427,320.350769 
	C515.988220,323.752899 514.018433,324.322693 510.655884,320.479950 
	C504.764008,313.746582 497.806763,308.006958 492.003357,300.873352 
	C489.285187,303.599365 492.590332,306.788544 490.056549,309.695984 
	C473.937164,303.483551 462.999725,291.646057 455.098633,275.837433 
	C453.432251,279.322876 455.120239,282.222565 455.013275,286.434357 
	C436.091766,272.863770 427.342987,254.810730 423.922119,233.390625 
	C421.195068,234.653488 422.385956,237.943619 419.740570,239.414520 
	C416.179779,235.197845 415.558258,229.908661 414.268158,224.433289 
M537.364685,195.273376 
	C529.173645,194.328583 521.226990,192.727524 515.242371,186.640671 
	C504.490448,193.682266 504.276794,193.711288 490.899078,195.447662 
	C488.445007,195.766190 485.982178,196.405502 483.661041,197.267456 
	C480.334351,198.502838 478.127869,201.012604 477.444275,204.529053 
	C475.651642,213.750153 485.870148,224.251328 495.130035,222.798843 
	C500.969086,221.882965 503.847534,216.749222 501.554169,211.409332 
	C501.002014,210.123734 499.612671,208.981186 500.648438,207.340607 
	C504.298431,206.759903 527.842712,207.223404 529.646301,207.966507 
	C529.435852,208.566376 529.362549,209.282761 528.988098,209.765610 
	C524.275513,215.842377 528.918274,223.301743 537.232300,222.866913 
	C544.460632,222.488846 551.768616,215.258774 552.521362,207.406952 
	C553.083801,201.540817 548.965881,197.426529 540.697693,195.629135 
	C539.888428,195.453201 539.047668,195.422211 537.364685,195.273376 
z"/>
<path fill="#000000" opacity="1.000000" stroke="none" 
	d="
M470.334473,117.993423 
	C470.277679,121.990952 470.295563,125.493431 470.136230,128.987823 
	C470.046936,130.947067 470.099335,133.510880 467.445709,133.613297 
	C464.668427,133.720474 464.870728,131.171219 464.633606,129.191986 
	C463.400391,118.898819 463.895294,108.555359 463.643005,98.233238 
	C463.601776,96.546501 464.413391,94.561607 462.551331,93.127739 
	C460.605957,94.505127 461.410339,96.506096 461.352966,98.186966 
	C461.000641,108.506836 461.521576,118.854805 460.340302,129.148041 
	C460.141235,130.882660 460.636017,133.246140 457.979279,133.362885 
	C455.151947,133.487091 454.992249,131.054611 454.924805,129.103577 
	C454.573853,118.948868 454.375519,108.788963 454.047211,98.633354 
	C453.997498,97.094589 454.614349,95.270157 452.833862,94.065643 
	C450.533905,95.171852 451.416412,97.254463 451.389984,98.886345 
	C451.244171,107.884155 451.241974,116.884239 451.169128,125.883369 
	C451.158356,127.214386 451.151001,128.564209 450.931610,129.869965 
	C450.662537,131.471268 450.553864,133.598831 448.362976,133.558777 
	C445.891968,133.513626 445.804810,131.322784 445.742004,129.470657 
	C445.408813,119.648537 445.134827,109.824402 444.790131,100.002724 
	C444.730011,98.290154 445.238708,96.358200 443.560547,94.912659 
	C441.469604,96.353745 442.246490,98.372932 442.181305,100.048492 
	C441.805908,109.701950 441.579834,119.361122 441.258698,129.016861 
	C441.193970,130.962830 441.485443,133.553253 438.636963,133.526077 
	C435.942902,133.500397 435.923218,130.975098 435.857117,128.998657 
	C435.550903,119.841888 435.357849,110.681320 435.044403,101.524834 
	C434.985718,99.809036 435.632568,97.845375 433.855316,96.398567 
	C431.586914,97.512726 432.416718,99.584892 432.382446,101.219078 
	C432.207733,109.549370 432.202606,117.883095 432.060883,126.214294 
	C432.032806,127.865761 431.721649,129.520935 431.440063,131.157013 
	C431.192383,132.596313 430.425964,133.668686 428.800049,133.624115 
	C427.150757,133.578918 426.472198,132.332657 426.281647,130.978119 
	C425.981415,128.844055 425.863434,126.677452 425.784576,124.520370 
	C425.464172,115.753616 426.178162,106.946243 424.998260,97.730988 
	C422.560974,99.153030 423.231384,101.143082 423.200104,102.738785 
	C423.040039,110.902267 423.128662,119.072884 422.828461,127.229889 
	C422.745911,129.471985 423.381348,132.794983 419.891052,133.293076 
	C416.200104,133.819778 415.104675,130.865707 414.397247,128.033463 
	C411.776276,117.539948 409.120178,107.008194 408.722412,96.159660 
	C408.301727,84.686546 412.974976,78.641907 424.164062,75.441162 
	C432.835114,72.960732 441.826813,72.132149 450.726227,71.010017 
	C474.542664,68.006981 498.484589,66.452248 522.484314,66.962952 
	C549.298157,67.533531 576.023376,69.480682 602.418762,74.629150 
	C605.543823,75.238686 608.493286,76.328217 611.340942,77.762878 
	C618.666504,81.453545 621.571167,87.782257 620.920593,95.477638 
	C619.995483,106.419647 618.025024,117.242493 615.217041,127.881821 
	C614.531128,130.480957 613.740601,133.469315 610.277100,133.152588 
	C606.535034,132.810410 606.939697,129.514236 606.898438,126.937805 
	C606.773010,119.106522 606.847900,111.272118 606.735229,103.440498 
	C606.710510,101.727570 607.403992,99.770630 605.557434,98.142570 
	C603.514587,99.579071 604.234314,101.721657 604.161987,103.505501 
	C603.824707,111.827080 603.655090,120.155434 603.321350,128.477188 
	C603.240967,130.481949 603.945557,133.519928 600.738159,133.448227 
	C597.795776,133.382462 598.071716,130.396347 598.020447,128.366898 
	C597.793274,119.371620 597.781067,110.371109 597.598633,101.374367 
	C597.560791,99.510239 598.263306,97.300957 595.808838,95.903137 
	C593.773254,97.021553 594.409119,99.027740 594.380005,100.680695 
	C594.238953,108.678429 594.236023,116.678673 594.084106,124.676125 
	C594.043213,126.830536 593.660400,128.979248 593.418030,131.128738 
	C593.276978,132.379761 592.796387,133.494507 591.389709,133.568466 
	C589.770874,133.653564 588.973877,132.542084 588.800049,131.080200 
	C588.465942,128.270355 588.079041,125.451401 588.006958,122.628754 
	C587.815430,115.132469 587.804810,107.631729 587.663330,100.133865 
	C587.630737,98.401505 588.104919,96.481873 586.483887,94.955429 
	C584.546997,96.456291 585.291138,98.430527 585.227295,100.118080 
	C584.868347,109.605682 584.641846,119.098228 584.308533,128.586929 
	C584.235535,130.665375 584.660095,133.561340 581.506897,133.443024 
	C578.522827,133.331055 578.865845,130.460266 578.791382,128.379074 
	C578.445618,118.723991 578.217163,109.064735 577.879578,99.409309 
	C577.818359,97.656258 578.402222,95.757095 576.876709,93.878067 
	C574.792236,94.986816 575.366211,96.961281 575.347778,98.566338 
	C575.253906,106.731766 575.266907,114.898361 575.205078,123.064262 
	C575.189941,125.061455 575.224304,127.090347 574.887573,129.044632 
	C574.575500,130.855392 574.918213,133.632889 572.071716,133.530411 
	C569.226135,133.427963 569.777588,130.726700 569.559021,128.862579 
	C568.332397,118.403107 569.019897,107.886787 568.678650,97.400192 
	C568.622620,95.678734 569.161499,93.792267 567.819702,92.161789 
	C565.361145,93.385155 566.173523,95.454002 566.120178,97.091873 
	C565.784119,107.414490 565.618347,117.742775 565.258240,128.064377 
	C565.185486,130.150055 566.166504,133.521042 562.528687,133.327072 
	C559.293030,133.154587 559.901367,129.951996 559.831055,127.754875 
	C559.505737,117.598915 559.307983,107.438911 559.047119,97.280800 
	C559.002014,95.523186 559.340149,93.665306 558.006470,91.848885 
	C555.766846,93.135208 556.391785,95.117744 556.369690,96.743118 
	C556.238281,106.408020 556.202026,116.074181 556.115479,125.739754 
	C556.103577,127.071121 556.100159,128.418823 555.895386,129.728073 
	C555.641602,131.350815 555.470703,133.411804 553.326355,133.461456 
	C550.749329,133.521133 550.831055,131.327209 550.683655,129.477753 
	C549.809265,118.505295 549.715271,107.510979 549.642822,96.512520 
	C549.630676,94.671501 550.439209,92.495323 548.361816,90.947029 
	C546.348328,92.478691 547.108032,94.636543 547.051208,96.482689 
	C546.728088,106.972313 546.532715,117.465805 546.254333,127.956932 
	C546.219299,129.276657 546.052795,130.613342 545.759644,131.899414 
	C545.515076,132.972214 544.619507,133.560928 543.531799,133.563049 
	C542.438538,133.565170 541.516418,132.949966 541.301697,131.896942 
	C540.972229,130.280838 540.787781,128.615067 540.740662,126.964684 
	C540.441040,116.473259 540.233154,105.979080 539.896301,95.488983 
	C539.840942,93.764931 540.422119,91.844414 538.827515,90.050484 
	C536.589417,91.659767 537.387024,93.985352 537.326233,95.925430 
	C536.976746,107.076736 537.756287,118.258408 536.417786,129.383423 
	C536.205627,131.146744 536.456909,133.451340 533.781433,133.373856 
	C531.288757,133.301651 531.092468,131.025757 531.055725,129.287262 
	C530.823792,118.292198 530.776001,107.293373 530.581299,96.297310 
	C530.545227,94.258728 531.168945,91.973534 529.194641,90.233582 
	C527.639404,91.386848 528.174194,93.023308 528.132751,94.392815 
	C527.799805,105.382347 527.605957,116.376221 527.244629,127.364655 
	C527.168945,129.666702 528.170471,133.270844 524.650635,133.401688 
	C521.012878,133.536911 521.870117,129.891388 521.788391,127.599785 
	C521.396545,116.612679 521.164429,105.619942 520.849915,94.629936 
	C520.804382,93.038780 521.144043,91.332451 519.833984,89.694466 
	C517.637634,90.969070 518.324707,92.971214 518.301636,94.563835 
	C518.164062,104.061836 518.145630,113.561554 518.084473,123.060677 
	C518.079163,123.893883 518.180298,124.752838 518.015625,125.555435 
	C517.439148,128.365234 519.270142,133.250900 514.894714,133.137253 
	C510.872253,133.032776 512.069336,128.200806 511.934845,125.321411 
	C511.460999,115.174767 511.305786,105.013474 510.989441,94.858986 
	C510.944122,93.403267 511.245483,91.858627 510.170074,90.334969 
	C508.661407,91.434555 509.168854,93.029678 509.130219,94.352943 
	C508.809418,105.341957 508.556976,116.332970 508.283966,127.323380 
	C508.271545,127.823189 508.293976,128.326691 508.241150,128.822174 
	C508.033417,130.770355 508.298553,133.366592 505.591400,133.442383 
	C502.862061,133.518753 502.882690,130.959702 502.784821,128.986084 
	C502.479645,122.830765 502.153809,116.673157 502.037964,110.512642 
	C501.911072,103.764503 502.009094,97.012131 502.009094,89.130722 
	C498.674683,91.360794 499.382172,93.517151 499.322021,95.252876 
	C498.935242,106.403893 499.682831,117.585991 498.458008,128.711960 
	C498.260315,130.507767 498.991180,133.303665 495.981079,133.316269 
	C492.992584,133.328766 493.615601,130.487442 493.430634,128.722900 
	C492.316345,118.094254 492.945465,107.412399 492.629669,96.756973 
	C492.567413,94.656441 493.089111,92.407326 491.303436,90.208542 
	C489.293213,92.650162 489.522461,95.464973 489.468750,98.078438 
	C489.277039,107.408585 489.351044,116.744919 489.093109,126.072510 
	C489.020782,128.689163 489.885468,133.025375 486.376343,133.123260 
	C482.256439,133.238174 483.849365,128.844254 483.736420,126.340446 
	C483.263733,115.858261 483.067108,105.363861 482.707672,94.876045 
	C482.665710,93.650955 483.166809,92.157104 481.457336,91.154175 
	C479.530426,92.827271 480.268127,95.100281 480.200104,97.089935 
	C479.841675,107.574860 480.618073,118.088303 479.470520,128.551147 
	C479.251404,130.548798 479.795288,133.631119 476.687958,133.514374 
	C473.399017,133.390823 473.964020,130.216904 473.891571,128.032745 
	C473.543640,117.544739 473.354156,107.051559 473.038269,96.562325 
	C472.992065,95.028297 473.641418,93.185524 471.080414,91.666031 
	C469.601227,100.503166 470.696716,109.039749 470.334473,117.993423 
z"/>
<path fill="#000000" opacity="1.000000" stroke="none" 
	d="
M362.097412,404.000000 
	C362.096008,411.329193 361.947510,418.162842 362.151978,424.985870 
	C362.265137,428.762604 360.774811,430.412018 357.065613,430.758667 
	C341.633911,432.200897 343.933563,434.684692 343.779114,419.681671 
	C343.691956,411.214447 343.763397,402.745605 343.275421,394.161682 
	C339.984955,404.317230 336.694489,414.472778 333.404022,424.628296 
	C332.946350,424.617737 332.488678,424.607178 332.031036,424.596588 
	C327.763672,415.398834 325.525482,405.404846 321.044312,396.088013 
	C321.044312,406.833252 320.853912,417.583405 321.132141,428.321411 
	C321.254211,433.032959 319.852234,435.158813 314.917358,435.786102 
	C301.511139,437.490234 302.860291,439.699524 302.852203,425.711212 
	C302.837280,399.893555 302.949371,374.075439 302.795319,348.258759 
	C302.770325,344.070129 303.871094,342.547272 308.279877,342.272614 
	C321.956299,341.420532 321.914185,341.220154 325.449738,354.118988 
	C327.553131,361.792877 329.765381,369.436951 332.866089,377.186768 
	C335.503143,367.870209 338.480927,358.631866 340.645752,349.206848 
	C341.886993,343.802765 344.373444,341.947662 349.852356,342.003723 
	C364.812317,342.156860 361.941559,342.181946 362.065460,354.030182 
	C362.237976,370.518433 362.101776,387.009918 362.097412,404.000000 
z"/>
<path fill="#000000" opacity="1.000000" stroke="none" 
	d="
M708.755371,425.142944 
	C706.729370,418.176086 704.798523,411.603119 702.867676,405.030151 
	C702.331909,405.106812 701.796082,405.183441 701.260315,405.260071 
	C701.260315,412.323212 701.277222,419.386383 701.255676,426.449463 
	C701.233337,433.753021 701.216980,433.752960 693.917847,432.615143 
	C682.731323,430.871338 682.731079,430.871338 682.732361,419.378235 
	C682.735107,395.721985 682.878052,372.064209 682.627747,348.410645 
	C682.575073,343.438202 684.428955,341.978058 688.951172,342.114685 
	C698.770630,342.411133 708.601501,342.371246 718.416504,342.754669 
	C724.735413,343.001495 728.967163,347.412231 729.105286,354.351135 
	C729.367004,367.505829 729.279358,380.671600 729.078796,393.828796 
	C729.019226,397.737030 727.749329,401.505707 723.696289,403.287170 
	C721.057434,404.447052 721.647339,406.238953 722.232239,408.246826 
	C724.512329,416.073975 726.775818,423.906281 728.970093,431.757751 
	C729.403015,433.306763 730.347412,434.837006 729.445129,437.101379 
	C723.817810,437.161743 718.015869,436.379395 712.705933,434.365723 
	C709.449829,433.130859 710.156311,428.529236 708.755371,425.142944 
M701.287415,380.350037 
	C701.291199,381.344391 701.386414,382.348389 701.282471,383.331329 
	C700.896667,386.982269 702.804260,387.780670 706.054443,387.776093 
	C709.434692,387.771301 710.882141,386.555237 710.824951,383.119751 
	C710.711914,376.327148 710.718323,369.529236 710.854797,362.737152 
	C710.929077,359.041321 708.902588,358.446716 705.813477,358.327698 
	C702.308044,358.192627 701.112793,359.572571 701.231567,362.985931 
	C701.421570,368.448303 701.285767,373.921997 701.287415,380.350037 
z"/>
<path fill="#000000" opacity="1.000000" stroke="none" 
	d="
M588.674377,414.911804 
	C588.673035,392.289062 588.800964,370.151123 588.572571,348.016846 
	C588.523682,343.276184 590.221863,341.890747 594.643799,342.071075 
	C603.948364,342.450653 613.285645,341.559998 622.577454,342.630035 
	C628.774963,343.343750 631.899048,345.845215 632.629395,351.809204 
	C633.640686,360.067230 633.424683,368.399933 632.646545,376.698639 
	C632.434692,378.956848 631.184082,380.720032 629.611633,382.914276 
	C634.421814,386.742096 634.512390,392.178223 634.348572,397.758484 
	C634.192383,403.080414 634.462708,408.418396 634.206604,413.733032 
	C633.838806,421.366974 629.693237,425.403015 622.089905,425.281982 
	C613.778687,425.149750 605.475342,424.549774 597.167297,424.182617 
	C588.735474,423.809967 588.734802,423.825500 588.674377,414.911804 
M616.265747,404.791290 
	C616.318237,401.659851 616.463867,398.526489 616.400269,395.397400 
	C616.317078,391.302734 613.584167,390.831543 610.245178,390.887909 
	C606.741455,390.946991 606.237183,392.972992 606.328735,395.788391 
	C606.425354,398.759094 606.359314,401.735199 606.357056,404.708954 
	C606.355286,407.074341 606.148438,409.646301 609.627380,409.583618 
	C612.577698,409.530487 616.409729,410.742706 616.265747,404.791290 
M615.268005,375.630402 
	C616.405212,371.564606 615.457275,367.400513 615.849243,363.304169 
	C616.209778,359.536621 614.741516,357.902588 610.818787,357.874725 
	C606.819214,357.846375 606.095886,359.915314 606.312134,363.213379 
	C606.452576,365.355164 606.350464,367.512909 606.355103,369.663513 
	C606.371765,377.357208 606.917725,377.788055 615.268005,375.630402 
z"/>
<path fill="#000000" opacity="1.000000" stroke="none" 
	d="
M444.548065,423.530579 
	C436.755402,424.388153 436.689331,424.349030 436.685272,417.172180 
	C436.672211,394.216461 436.806366,371.259430 436.568909,348.306122 
	C436.518311,343.414886 438.161377,341.881348 442.854370,342.037659 
	C450.497284,342.292236 458.157501,341.968658 465.807098,342.093414 
	C477.567902,342.285156 480.969849,345.758667 481.074036,357.397705 
	C481.115723,362.054962 481.092010,366.713104 481.062317,371.370605 
	C481.039642,374.924835 480.430847,378.322449 478.244812,380.978180 
	C484.710876,391.969330 482.517822,403.559235 480.952332,414.901978 
	C480.304230,419.597839 476.126587,421.755676 471.409515,422.345001 
	C462.634552,423.441254 453.805145,423.145660 444.548065,423.530579 
M454.708740,406.572876 
	C461.684631,409.577606 464.288239,407.957855 464.128052,400.727448 
	C464.072845,398.235840 464.046661,395.743530 464.021271,393.251373 
	C463.981720,389.372925 461.298584,389.404663 458.478516,389.310211 
	C455.559906,389.212433 454.160889,390.226379 454.290771,393.318665 
	C454.464935,397.465668 454.402405,401.622650 454.708740,406.572876 
M461.827637,357.946808 
	C454.686646,356.782318 454.325562,357.069855 454.329071,363.921509 
	C454.330505,366.730347 454.373718,369.539886 454.322266,372.347748 
	C454.282074,374.540649 455.121155,375.890594 457.463867,375.787842 
	C459.652161,375.691833 463.065643,376.725220 463.322784,373.746185 
	C463.763306,368.642548 465.011505,363.312775 461.827637,357.946808 
z"/>
<path fill="#000000" opacity="1.000000" stroke="none" 
	d="
M544.112549,422.194397 
	C538.989807,422.749390 537.653625,420.561584 537.686279,416.088196 
	C537.851868,393.438263 537.828308,370.785980 537.691040,348.135651 
	C537.666931,344.151215 538.829529,342.588623 543.029663,342.456940 
	C552.686523,342.154083 562.329651,341.671753 571.966736,342.651123 
	C578.669983,343.332306 582.217468,347.055664 582.289001,353.752594 
	C582.404602,364.577240 582.329041,375.404114 582.308350,386.229980 
	C582.301270,389.910370 581.387756,393.363403 577.926208,395.169525 
	C575.027649,396.681885 575.450378,398.523712 576.291443,400.939453 
	C578.736023,407.961060 581.043030,415.030548 583.608521,422.692169 
	C577.742310,423.709961 572.660706,423.189484 567.615051,422.753204 
	C564.891052,422.517670 564.594055,419.947693 563.927917,417.948120 
	C561.688171,411.224854 559.523132,404.476715 557.216675,397.391663 
	C554.763123,398.771912 555.427063,400.602386 555.402527,402.067627 
	C555.319092,407.062592 555.099426,412.079742 555.459351,417.050232 
	C555.769775,421.336060 554.157837,422.793732 550.075500,422.290649 
	C548.268677,422.067993 546.415710,422.219757 544.112549,422.194397 
M555.414368,379.818298 
	C556.306824,384.218140 559.754333,382.506683 562.253906,382.450470 
	C564.715271,382.395142 564.732422,380.183990 564.739441,378.317230 
	C564.760681,372.665100 564.682251,367.011719 564.778381,361.361115 
	C564.837524,357.880707 562.847656,357.322968 559.959961,357.285126 
	C556.930542,357.245483 555.263062,358.087189 555.347717,361.493317 
	C555.492249,367.308167 555.381165,373.129364 555.414368,379.818298 
z"/>
<path fill="#000000" opacity="1.000000" stroke="none" 
	d="
M533.400513,414.839081 
	C534.924072,421.778748 534.661865,422.106079 528.045349,422.049255 
	C526.215881,422.033569 524.373657,421.870758 522.559570,422.029724 
	C518.124023,422.418457 515.453796,420.984253 515.661377,416.040375 
	C515.776550,413.296295 514.223877,411.918060 511.612152,412.327606 
	C508.543762,412.808716 504.385834,410.176239 502.792542,415.338684 
	C502.104279,417.568695 503.155304,421.037170 499.960571,421.693787 
	C495.247681,422.662354 490.357697,422.601196 485.594330,421.829865 
	C483.677521,421.519440 484.051758,419.572937 484.360168,418.080872 
	C489.332184,394.027893 494.335846,369.981415 499.253815,345.917419 
	C499.820984,343.142334 501.257172,342.168762 504.010590,341.970123 
	C517.852295,340.971619 517.920654,340.895752 520.798157,354.470154 
	C525.031433,374.440155 529.148743,394.434692 533.400513,414.839081 
M509.437866,397.827087 
	C511.361725,397.804352 512.692627,397.313904 512.300171,394.904205 
	C511.323181,388.905548 510.442841,382.891144 509.523651,376.883087 
	C507.795624,383.026947 506.901489,389.206299 505.961487,395.378662 
	C505.612030,397.673492 507.103241,397.779816 509.437866,397.827087 
z"/>
<path fill="#000000" opacity="1.000000" stroke="none" 
	d="
M659.405396,342.282196 
	C663.699097,342.210571 667.527161,342.146362 671.354858,342.163696 
	C673.510193,342.173431 675.389832,342.820374 675.815552,345.264252 
	C676.577454,349.637329 677.226868,354.030029 677.991333,358.842987 
	C672.725525,359.829712 667.907166,359.412689 663.155518,359.313019 
	C659.462097,359.235504 657.856323,360.528564 658.311584,364.230469 
	C658.392273,364.886322 658.320557,365.560944 658.318481,366.226898 
	C658.284302,377.030975 658.279175,377.125824 668.953003,377.693970 
	C672.142151,377.863708 673.559204,379.091461 673.309631,382.245789 
	C673.283447,382.576294 673.312561,382.911346 673.319458,383.244263 
	C673.539734,393.811401 673.541504,393.918427 662.978394,394.094147 
	C659.613159,394.150116 658.324829,395.186310 658.250061,398.709229 
	C657.982361,411.336792 657.866943,411.303162 670.417603,411.988831 
	C672.695068,412.113220 674.952148,412.609467 677.487854,412.972595 
	C677.360474,418.194092 676.160645,422.829254 675.306030,427.511963 
	C674.808472,430.237976 672.904358,430.281494 670.763123,430.059326 
	C661.835205,429.132996 652.915222,428.099274 643.969666,427.390839 
	C640.666687,427.129242 639.733765,425.612610 639.739075,422.623596 
	C639.783752,397.484222 639.805176,372.344604 639.726440,347.205414 
	C639.715576,343.741730 641.067810,342.475739 644.465515,342.547699 
	C649.286438,342.649780 654.114563,342.414734 659.405396,342.282196 
z"/>
<path fill="#000000" opacity="1.000000" stroke="none" 
	d="
M413.213989,363.025299 
	C409.537506,376.060730 405.961273,388.700775 402.361023,401.334015 
	C400.448547,408.044952 401.445282,414.909363 401.414764,421.694794 
	C401.397095,425.635406 399.833374,427.147766 396.177582,427.167786 
	C394.846802,427.175049 393.516113,427.274139 392.186157,427.345825 
	C382.527222,427.866241 382.031769,427.831665 382.710938,418.425781 
	C383.705688,404.649628 378.313568,392.305023 375.027527,379.489807 
	C372.383820,369.179718 369.246429,358.996460 366.355042,348.749359 
	C365.866577,347.018219 365.514679,345.248566 364.971252,342.954712 
	C370.872559,341.523560 376.445251,341.865814 381.983337,342.517334 
	C384.572662,342.821930 384.489227,345.432281 384.899567,347.248718 
	C386.583893,354.705017 388.052917,362.209656 389.661713,369.683502 
	C390.076538,371.610657 390.711823,373.490387 391.541992,376.446472 
	C394.090149,370.922058 394.424316,365.857574 395.664398,361.070160 
	C396.914032,356.245819 397.925110,351.357544 398.951660,346.478516 
	C399.496887,343.887329 400.757355,342.250580 403.595001,342.245087 
	C407.255249,342.238007 410.916656,342.156525 414.575439,342.223267 
	C417.613434,342.278656 418.697693,343.742493 417.783997,346.783966 
	C416.205231,352.039307 414.788818,357.343445 413.213989,363.025299 
z"/>
</svg>